# xmcd
#
# Track frame offsets:
#	150
#	14080
#	31735
#	47389
#	64403
#	78914
#	95173
#	115427
#	136891
#	153893
#	169208
#	188032
#	204753
#	223223
#	247597
#	270140
#	288238
#	305514
#	321237
#
# Disc length: 4444 seconds
#
# Revision: 1
# Processed by: cddbd v1.5.2PL0 Copyright (c) Steve Scherf et al.
# Submitted via: audiograbber 1.83.01
#
DISCID=01115a13
DTITLE=Various Artist - New Country Giants Vol. 3
DYEAR=2004
DGENRE=Country
TTITLE0=Aaron Tippin - The Man That Came Between Us ( Was Me )
TTITLE1=Vice Gill - All Those Years
TTITLE2=Trisha Yearwood - One More Chance
TTITLE3=Clint Black - Burn One Down
TTITLE4=Garth Brooks - Cowboys And Angels
TTITLE5=Emmylou Harris - The Sweetheart Of The Rodeo
TTITLE6=Billy Ray Cyrus - Should A Stay
TTITLE7=John Hiatt - Feels Like Rain
TTITLE8=Gerorge Jones, Emmylou Harris, Dolly Parton and Trisha Yearwood - Were Gr
TTITLE8=ass Won't Grow
TTITLE9=Alan Jackson - A House With No Angels
TTITLE10=Lyle Lovett - This Old Porch
TTITLE11=K. T. Oslin - Come Next Monday
TTITLE12=John Michael Montgomery - Come Next Monday
TTITLE13=Notting Hillbillies - Railroad Worksong
TTITLE14=Trisha Yearwood - New Kid In Town
TTITLE15=Dan Penn - Cry Like A Man
TTITLE16=Bruce Springsteen - My Beautiful Reward
TTITLE17=Lucy J. Dalton - Black Coffee
TTITLE18=Alabama - Sing Me Back Home
EXTD=
EXTT0=
EXTT1=
EXTT2=
EXTT3=
EXTT4=
EXTT5=
EXTT6=
EXTT7=
EXTT8=
EXTT9=
EXTT10=
EXTT11=
EXTT12=
EXTT13=
EXTT14=
EXTT15=
EXTT16=
EXTT17=
EXTT18=
PLAYORDER=
